<svg width="50px" height="13px" viewBox="0 0 50 13" version="1.1" xmlns="http://www.w3.org/2000/svg" xmlns:xlink="http://www.w3.org/1999/xlink">
        <path d="M49.7339348,6.34433979 C49.7323352,6.34433979 49.7307356,6.34433979 49.729136,6.34433979 C49.7280696,6.3432734 49.72647,6.3427402 49.7248704,6.34167381 L50,6.34433979 L48.7427219,5.57813594 L48.2212554,5.56587242 C48.0021115,5.47096338 47.8074946,5.4005814 47.6773946,5.38191951 C47.1575277,5.30620556 34.2936208,4.0686557 34.2936208,4.0686557 L31.3146501,0.303752852 C31.3146501,0.303752852 31.1440271,-0.0353603355 29.957131,0.00302983661 C28.9605861,0.0376876309 27.3050099,0.302153261 24.4166827,0.898267322 C16.8794122,2.4520029 14.3104699,3.29818628 14.3104699,3.29818628 C14.3104699,3.29818628 9.96065007,3.27899119 7.01207158,3.36536908 L7.03393265,3.32537932 C7.03393265,3.32537932 5.03391132,2.20406637 4.27037345,1.93053639 C3.50843517,1.65594002 3.39113187,1.80310235 3.39113187,1.80310235 L1.84006228,4.15769957 C1.84006228,4.15769957 1.71422782,4.36244716 2.01495084,4.62744599 C2.06240536,4.66903534 2.10985988,4.71489027 2.15731439,4.7596788 L2.15251562,4.76874315 C2.14238488,4.78900463 2.13332054,4.80873291 2.12372299,4.82952759 L1.60812165,5.89165568 L1.62784994,5.89218888 L2.02508158,6.54908738 L1.3143302,8.03137458 L0.564122251,8.15294346 L0.474011986,8.77891654 L1.17569902,9.1740154 L1.16130271,10.3625111 C1.16130271,10.3625111 0.761938277,10.1247054 0.59131529,10.630176 C0.420692303,11.1372461 0.777400985,11.2374871 0.777400985,11.2374871 L0.0559856677,11.6645778 L0,12.0426144 L2.41271568,11.7285614 L3.19758142,10.1790914 L3.67745857,9.32224412 L3.71051677,9.36863224 L3.73131145,9.36863224 L3.8907373,9.62669951 C4.076823,9.97434385 4.42660012,9.94021925 4.42660012,9.94021925 L4.65267558,9.94021925 L6.17921812,11.730161 C6.17921812,11.730161 6.2831915,11.735493 6.47780835,11.7456237 C8.35892678,11.8405328 18.7178749,12.3603997 25.6622305,12.6237989 C33.3253354,12.9127916 39.7940794,12.1124632 42.6952034,11.0828601 C43.7333376,10.7154874 44.9308977,10.0058025 46.0426131,9.24706336 L46.0522106,9.24706336 L46.6552563,8.86742722 C46.6552563,8.86742722 46.6291296,8.86796041 46.5859407,8.86796041 C48.3401583,7.61654744 49.7568622,6.3598025 49.7568622,6.3598025 C49.7568622,6.3598025 49.7483311,6.35287094 49.7339348,6.34433979 M30.7483951,0.864142725 L32.7633459,3.47467443 C32.7633459,3.47467443 30.2546548,3.56745068 29.7662465,3.42188794 C29.3770128,3.30618423 28.5809499,1.68046708 28.564954,1.29283298 C28.545759,0.851879198 30.7483951,0.864142725 30.7483951,0.864142725 M27.6398575,1.15846738 C28.0098961,1.26030797 28.7665024,3.29658669 28.50257,3.45068057 C28.2381044,3.60690724 18.200674,2.96867063 18.200674,2.96867063 C18.200674,2.96867063 27.2682193,1.05715998 27.6398575,1.15846738 M35.0070382,9.08657112 C29.510312,9.32970887 5.17894086,8.57310256 5.17894086,8.57310256 L4.67187067,7.34248427 C32.5692623,8.71120054 46.7219059,7.34088468 46.7219059,7.34088468 C46.7219059,7.34088468 40.3704652,8.84876533 35.0070382,9.08657112"  class="icon"></path>
</svg>
