<svg viewBox="0 0 50 40" version="1.1" xmlns="http://www.w3.org/2000/svg" xmlns:xlink="http://www.w3.org/1999/xlink">
        <path d="M13.8367544,12.0357686 L8.74183772,5.78555847 L3.64774762,12.0357686 L0.00922992148,12.0357686 L0.00922992148,39.4960452 L2.88565918,39.4960452 L2.88565918,28.8971831 L2.46824631,28.8971831 L2.46824631,27.7937693 L11.1843229,27.7937693 L11.1843229,28.8971831 L10.8379942,28.8971831 L10.8379942,39.4960452 L24.4588786,39.4960452 L24.4588786,12.0357686 L13.8367544,12.0357686 Z M3.34853286,23.6903204 L10.0626808,23.6903204 L10.0626808,17.4754919 L3.34853286,17.4754919 L3.34853286,23.6903204 Z M8.74183772,12.9491089 C7.90287918,12.9491089 7.21848739,12.2678064 7.21848739,11.4334576 C7.21848739,10.5982861 7.90287918,9.92109769 8.74183772,9.92109769 C9.58410249,9.92109769 10.2627084,10.5982861 10.2627084,11.4334576 C10.2627084,12.2678064 9.58410249,12.9491089 8.74183772,12.9491089 Z M14.1384488,23.6894975 L20.8567296,23.6894975 L20.8567296,17.4746691 L14.1384488,17.4746691 L14.1384488,23.6894975 Z M14.0276898,35.4115214 L17.509161,35.4115214 L17.509161,32.0790634 L14.0276898,32.0790634 L14.0276898,35.4115214 Z M14.0276898,31.3467454 L17.509161,31.3467454 L17.509161,28.0151103 L14.0276898,28.0151103 L14.0276898,31.3467454 Z M18.2447996,35.4115214 L21.7304036,35.4115214 L21.7304036,32.0790634 L18.2447996,32.0790634 L18.2447996,35.4115214 Z M18.2447996,31.3467454 L18.2447996,28.0151103 L21.7304036,28.0151103 L21.7304036,31.3467454 L18.2447996,31.3467454 Z M4.62184874,39.4957983 L4.62184874,31.512605 L9.24369748,31.512605 L9.24369748,39.4957983 L4.62184874,39.4957983 Z M38.9713852,12.1355196 L33.8742722,5.90801394 L28.7779859,12.1355196 L25.188097,12.1355196 L25.188097,39.4960443 L27.5030876,39.4960443 L27.5030876,28.9356835 L27.0830821,28.9356835 L27.0830821,27.8362779 L35.8056357,27.8362779 L35.8056357,28.9356835 L35.4575603,28.9356835 L35.4575603,39.4960443 L49.637704,39.4960443 L49.637704,12.1355196 L38.9713852,12.1355196 Z M28.6622364,23.7477352 L35.3781892,23.7477352 L35.3781892,17.5554827 L28.6622364,17.5554827 L28.6622364,23.7477352 Z M33.8742722,13.0455421 C33.0359149,13.0455421 32.3546462,12.3667145 32.3546462,11.5353966 C32.3546462,10.7032589 33.0359149,10.0285304 33.8742722,10.0285304 C34.7134562,10.0285304 35.3947249,10.7032589 35.3947249,11.5353966 C35.3947249,12.3667145 34.7134562,13.0455421 33.8742722,13.0455421 Z M39.4550529,23.7469154 L46.1751396,23.7469154 L46.1751396,17.5546628 L39.4550529,17.5546628 L39.4550529,23.7469154 Z M46.5662076,36.1560156 L37.7651098,36.1560156 L37.7651098,29.092273 L38.9085497,29.092273 C39.7154893,28.1035458 40.871331,27.4796475 42.1660721,27.4796475 C43.4599864,27.4796475 44.6232692,28.1035458 45.4269016,29.092273 L46.5662076,29.092273 L46.5662076,36.1560156 Z M28.9915966,39.4957983 L28.9915966,31.512605 L33.6134454,31.512605 L33.6134454,39.4957983 L28.9915966,39.4957983 Z M8.74282959,4.48351366 L3.21231575,11.2677398 L0.0143545943,11.2677398 L0.558231161,0.251703431 L23.951536,0.251703431 L24.4540846,11.2677398 L14.2749966,11.2677398 L8.74282959,4.48351366 Z M33.880259,4.48351366 L28.348092,11.2677398 L25.1988979,11.2677398 L25.7369886,0.251703431 L49.13112,0.251703431 L49.632842,11.2677398 L39.412426,11.2677398 L33.880259,4.48351366 Z" class="icon"></path>
</svg>
