<svg viewBox="0 0 50 36" version="1.1" xmlns="http://www.w3.org/2000/svg" xmlns:xlink="http://www.w3.org/1999/xlink">
        <path d="M45.5015789,12.4318537 C45.2726316,12.3106829 45.0621053,12.1008293 44.8647368,11.844439 C45.8726316,11.6231707 47.8129825,11.195561 48.27,11.070878 C48.892807,10.9014146 49.6857895,10.674 49.6857895,9.12863415 C49.6857895,7.58414634 46.5708772,7.83526829 45.5524561,7.83526829 C44.5331579,7.83526829 44.9296491,9.88112195 44.9296491,9.88112195 L43.9296491,10.1682439 C43.7147368,9.70112195 43.5182456,9.24980488 43.3375439,8.91263415 C42.7585965,7.83439024 39.1603509,1.45273171 37.9314035,0.768731707 C36.5349123,-0.00834146341 30.6270175,-0.00043902439 24.8208772,-0.00043902439 C19.0147368,-0.00043902439 12.8226316,0.17604878 11.7094737,0.768731707 C10.2989474,1.52034146 6.81912281,7.722 6.22964912,9.02063415 C6.08315789,9.34287805 5.91649123,9.74590244 5.73052632,10.1612195 L4.75596491,9.88112195 C4.75596491,9.88112195 5.15245614,7.83526829 4.13315789,7.83526829 C3.11385965,7.83526829 -0.000175438597,7.58414634 -0.000175438597,9.12863415 C-0.000175438597,10.674 0.792807018,10.9014146 1.41561404,11.070878 C1.86824561,11.1946829 3.78315789,11.6170244 4.79719298,11.8391707 C4.5954386,12.096439 4.37701754,12.3054146 4.14017544,12.4318537 C3.17701754,12.941122 0.177017544,15.4347805 0.177017544,16.794878 L0.177017544,22.1966341 L0.177017544,28.6397561 C0.177017544,29.4914634 0.398070175,30.1052195 0.748947368,30.5565366 L0.748947368,35.2303902 C0.748947368,35.604439 1.08315789,35.91 1.49631579,35.91 L7.43578947,35.91 C7.84982456,35.91 8.18403509,35.604439 8.18403509,35.2303902 L8.18403509,31.7006341 L40.9691228,31.7006341 L40.9691228,35.2303902 C40.9691228,35.604439 41.3252632,35.91 41.7647368,35.91 L48.0963158,35.91 C48.5357895,35.91 48.892807,35.604439 48.892807,35.2303902 L48.892807,30.5565366 C49.2436842,30.1052195 49.4647368,29.4914634 49.4647368,28.6397561 L49.4647368,22.3178049 L49.4647368,16.794878 C49.4647368,15.4347805 46.4647368,12.941122 45.5015789,12.4318537 Z M7.95157895,9.14356098 C8.6454386,7.50073171 10.9980702,3.56531707 11.6401754,2.68287805 C12.2814035,1.80131707 15.3278947,1.49663415 24.842807,1.49663415 C34.3568421,1.49663415 37.1594737,1.45273171 38.0463158,2.68287805 C38.9322807,3.91390244 41.0392982,7.50073171 41.7331579,9.14356098 C42.4287719,10.7872683 41.0392982,10.8434634 40.1840351,10.8434634 L24.842807,10.8434634 L9.50157895,10.8434634 C8.6454386,10.8434634 7.25684211,10.7872683 7.95157895,9.14356098 Z M36.7963158,17.6957561 C36.7963158,17.6957561 35.0498246,20.8382927 33.9173684,22.0157561 C32.7840351,23.1932195 30.3884211,23.7174146 28.9208772,23.7174146 L20.7638596,23.7174146 C19.2419298,23.7174146 16.9007018,23.1932195 15.7691228,22.0157561 C14.6366667,20.8382927 12.8892982,17.6957561 12.8892982,17.6957561 L36.7963158,17.6957561 Z M5.71473684,28.6678537 C4.72964912,28.6678537 3.93052632,27.8697073 3.93052632,26.8827805 C3.93052632,25.8976098 4.72964912,25.0985854 5.71473684,25.0985854 C6.69982456,25.0985854 7.49807018,25.8976098 7.49807018,26.8827805 C7.49807018,27.8697073 6.69982456,28.6678537 5.71473684,28.6678537 Z M3.10421053,19.7222927 C2.57350877,19.5159512 1.31561404,18.1839512 3.19631579,16.5613171 C5.37789474,16.9757561 5.09105263,16.9450244 6.86649123,17.2839512 C8.78140351,17.6492195 10.2980702,18.0215122 10.9805263,19.1015122 C11.9182456,20.5862927 13.0585965,22.3134146 13.0585965,22.3134146 C13.0585965,22.3134146 3.53754386,19.890878 3.10421053,19.7222927 Z M24.842807,30.5003415 L9.48403509,30.5003415 C10.1059649,28.6406341 10.6892982,26.910878 12.8892982,26.910878 L24.842807,26.910878 L36.7954386,26.910878 C38.9954386,26.910878 39.5787719,28.6406341 40.2015789,30.5003415 L24.842807,30.5003415 Z M43.9708772,28.6678537 C42.9857895,28.6678537 42.1875439,27.8697073 42.1875439,26.8827805 C42.1875439,25.8976098 42.9857895,25.0985854 43.9708772,25.0985854 C44.9568421,25.0985854 45.7542105,25.8976098 45.7542105,26.8827805 C45.7542105,27.8697073 44.9568421,28.6678537 43.9708772,28.6678537 Z M46.5805263,19.7222927 C46.1480702,19.890878 36.6261404,22.3134146 36.6261404,22.3134146 C36.6261404,22.3134146 37.7673684,20.5862927 38.7050877,19.1015122 C39.3875439,18.0215122 40.9042105,17.6492195 42.8191228,17.2839512 C44.5936842,16.9450244 44.3068421,16.9757561 46.4892982,16.5613171 C48.37,18.1839512 47.1121053,19.5159512 46.5805263,19.7222927 Z" class="icon"></path>
</svg>
