<svg  viewBox="0 0 50 17" version="1.1" xmlns="http://www.w3.org/2000/svg" xmlns:xlink="http://www.w3.org/1999/xlink">
        <path d="M49.5752809,12.5868797 C49.5752809,12.5868797 49.6539326,12.2379342 49.7050562,11.4054901 C49.7797753,10.2062345 49.7797753,9.78080025 49.7797753,9.78080025 L49.1853933,9.01814516 L48.6657303,7.64022953 C47.8977528,7.1316067 45.2,5.980366 42.202809,5.42540323 C39.0117978,4.83526675 36.8539326,4.61417494 36.8539326,4.61417494 C36.8539326,4.61417494 31.5792135,1.80809553 28.905618,0.978442928 C26.8033708,0.324658809 23.6955056,0.0695099256 21.2539326,0.0549937965 C17.8876404,0.0337779156 14.9646067,0.296184864 13.1567416,0.553008685 C10.0370787,0.996308933 5.35674157,3.35852978 5.35674157,3.35852978 C5.35674157,3.35852978 4.46516854,3.43278536 3.20224719,3.5801799 C2.53820225,3.65722705 1.49382022,3.80183002 1.49382022,3.80183002 C1.49382022,3.80183002 1.48651685,3.81299628 1.48146067,3.82137097 C1.48089888,3.82192928 1.47921348,3.82472084 1.47865169,3.82527916 C1.4747191,3.83197891 1.47134831,3.83867866 1.46516854,3.84816998 C1.45617978,3.86380273 1.44550562,3.88166873 1.43146067,3.9067928 C1.4241573,3.92019231 1.41629213,3.93470844 1.40786517,3.9508995 C1.39325843,3.97825682 1.37865169,4.00784739 1.36123596,4.04246278 C1.3505618,4.06367866 1.34044944,4.08489454 1.32921348,4.10890199 C1.31179775,4.14630893 1.29382022,4.18650744 1.2752809,4.23061414 C1.26292135,4.2596464 1.2505618,4.28812035 1.23820225,4.31938586 C1.21910112,4.36628412 1.2,4.41709057 1.18089888,4.47068859 C1.16741573,4.50697891 1.15449438,4.54215261 1.14157303,4.58123449 C1.12247191,4.63818238 1.10393258,4.69959677 1.08539326,4.76212779 C1.07303371,4.80511787 1.06011236,4.84531638 1.04775281,4.89109801 C1.02865169,4.96312035 1.01123596,5.04128412 0.993820225,5.12056452 C0.984269663,5.16243797 0.973595506,5.20151985 0.965168539,5.24618486 C0.93988764,5.37236352 0.91741573,5.50524194 0.9,5.64705335 C0.886516854,5.75313275 0.876966292,5.85362903 0.866853933,5.95468362 C0.934269663,5.84302109 1.02752809,5.76541563 1.15561798,5.76764888 C1.51235955,5.77434864 4.16573034,5.83855459 4.72808989,5.8653536 C5.24157303,5.88991935 3.74775281,7.3962469 3.28089888,7.47217742 C2.93820225,7.52912531 1.26573034,7.25276055 0.95,7.19804591 C0.885393258,7.18687965 0.839325843,7.15840571 0.806741573,7.11764888 C0.806741573,7.49004342 0.825280899,7.71448511 0.825280899,7.71448511 L0.0314606742,8.6005273 C0.0314606742,8.6005273 -0.0662921348,9.01814516 0.0825842697,10.1504032 C0.230898876,11.2826613 0.0825842697,12.1435794 1.04831461,12.4394851 C1.12640449,12.4629342 1.22191011,12.4880583 1.3247191,12.5137407 C1.3511236,12.5204404 1.37865169,12.5271402 1.40674157,12.53384 C1.5011236,12.5561725 1.60168539,12.5790633 1.70955056,12.6019541 C1.7252809,12.605304 1.73876404,12.6086538 1.75449438,12.6120037 C1.88146067,12.6388027 2.01573034,12.66616 2.15505618,12.6929591 C2.18483146,12.6985422 2.21460674,12.7046836 2.24494382,12.7102667 C2.36460674,12.7331576 2.48595506,12.7554901 2.61011236,12.7783809 C2.63651685,12.7828474 2.66179775,12.7878722 2.68820225,12.7923387 C2.83258427,12.8185794 2.97752809,12.8442618 3.12247191,12.8688275 C3.15561798,12.8744107 3.18820225,12.8799938 3.22134831,12.8855769 C3.33483146,12.9051179 3.44606742,12.9235422 3.55561798,12.9419665 C3.59719101,12.9486663 3.63764045,12.955366 3.67865169,12.9620658 C3.81067416,12.98384 3.93876404,13.0044975 4.05955056,13.0240385 C4.0741573,13.0262717 4.08651685,13.0279467 4.1011236,13.0301799 C4.21685393,13.0486042 4.3241573,13.0653536 4.4247191,13.0809864 C4.43370787,13.0826613 4.44550562,13.0843362 4.45449438,13.0854529 C4.57359551,13.1038772 4.68370787,13.1211849 4.77191011,13.1345844 C4.95224719,13.1613834 5.05955056,13.1770161 5.05955056,13.1770161 L5.29438202,13.2038151 C5.28483146,13.0843362 5.27808989,12.9637407 5.27808989,12.8414702 C5.27808989,12.6879342 5.28595506,12.5360732 5.3011236,12.3864454 C5.53089888,10.1414702 7.43876404,8.38948511 9.75786517,8.38948511 C12.0780899,8.38948511 13.9853933,10.1414702 14.2146067,12.3864454 C14.2303371,12.5360732 14.2382022,12.6879342 14.2382022,12.8414702 C14.2382022,13.3121278 14.1640449,13.766036 14.0275281,14.1920285 L14.1966292,14.2104529 L36.1853933,14.2104529 L36.3297753,14.2121278 L36.3297753,14.2115695 C36.2668539,13.8687655 36.2382022,13.514237 36.2511236,13.1502171 C36.3426966,10.5373139 38.2410112,8.42521712 41.0011236,8.42521712 C43.911236,8.42521712 45.5101124,10.8549938 45.4185393,13.4684553 C45.4089888,13.739237 45.3764045,14.0033189 45.3247191,14.2595844 C45.4938202,14.2534429 45.9842697,14.2272022 47.1567416,14.116098 C47.3235955,14.0999069 47.5039326,14.0825993 47.6994382,14.0630583 C49.7050562,13.864299 49.947191,13.1770161 49.947191,13.1770161 L49.5752809,12.5868797 Z M21.2865169,0.995192308 L21.2258427,0.99351737 C21.2460674,0.994075682 21.2662921,0.994633995 21.2865169,0.995192308 Z M13.4247191,4.09717742 C12.8011236,3.94922457 11.4073034,2.47248759 11.4073034,2.47248759 C11.4073034,2.47248759 13.4247191,1.53675558 17.0196629,1.14370347 C18.1477528,1.02031638 19.3651685,0.974534739 20.5617978,0.983467742 L20.9410112,4.57565136 C17.1617978,4.36684243 13.7,4.16194169 13.4247191,4.09717742 Z M31.0039326,5.10828164 C31.0039326,5.10828164 27.0466292,4.90673077 22.8859551,4.68173077 L21.9516854,1.0169665 C24.041573,1.10350496 25.9275281,1.33743797 26.9735955,1.58700372 C28.8314607,2.02974566 31.9511236,4.02292184 31.9511236,4.02292184 L31.0039326,5.10828164 Z M48.9696629,9.21132134 L47.9921348,9.19066377 C47.9803371,9.18396402 47.9696629,9.19736352 47.958427,9.19066377 C47.644382,9.1566067 47.0904494,9.00865385 46.7606742,8.86628412 C46.3117978,8.67254963 45.4561798,7.55927419 45.5724719,7.4626861 C45.5775281,7.45877792 45.5848315,7.45598635 45.5938202,7.45598635 C45.6808989,7.45598635 46.0724719,7.53415012 46.5095506,7.62683002 C47.161236,7.76529156 47.9146067,7.93781017 47.9146067,7.93781017 C47.9870787,7.95567618 48.2926966,8.08632134 48.4483146,8.16950993 C48.7488764,8.32974566 48.9157303,8.81659429 48.9825843,9.0991005 C48.9932584,9.14264888 48.9876404,9.18061414 48.9696629,9.21132134 Z M40.8123441,8.80385253 C38.6781075,8.80385253 36.9464516,10.5142673 36.9464516,12.6261567 C36.9464516,14.7408111 38.6781075,16.4517788 40.8123441,16.4517788 C42.9499355,16.4517788 44.679914,14.7408111 44.679914,12.6261567 C44.679914,10.5142673 42.9499355,8.80385253 40.8123441,8.80385253 M40.8129032,14.8265253 C39.583914,14.8265253 38.5897634,13.8421935 38.5897634,12.6272627 C38.5897634,11.4123318 39.583914,10.428553 40.8129032,10.428553 C42.0424516,10.428553 43.0366022,11.4123318 43.0366022,12.6272627 C43.0366022,13.8421935 42.0424516,14.8265253 40.8129032,14.8265253 M9.61725591,8.80385253 C7.48301935,8.80385253 5.75136344,10.5148203 5.75136344,12.6261567 C5.75136344,14.7408111 7.48301935,16.4517788 9.61725591,16.4517788 C11.7548473,16.4517788 13.4848258,14.7408111 13.4848258,12.6261567 C13.4848258,10.5148203 11.7548473,8.80385253 9.61725591,8.80385253 M9.58762151,14.8912258 C8.3591914,14.8912258 7.36448172,13.906894 7.36448172,12.6914101 C7.36448172,11.4764793 8.3591914,10.4932535 9.58762151,10.4932535 C10.8171699,10.4932535 11.8113204,11.4764793 11.8113204,12.6914101 C11.8113204,13.906894 10.8171699,14.8912258 9.58762151,14.8912258" class="icon"></path>
</svg>
