<svg viewBox="0 0 49 59" version="1.1" xmlns="http://www.w3.org/2000/svg" xmlns:xlink="http://www.w3.org/1999/xlink">

    <g id="Page-1" stroke="none" stroke-width="1" fill="none" fill-rule="evenodd">
            <path d="M44.7232653,58.03268 L8.48195122,58.03268 C6.56935789,58.03268 5.01156794,56.46668 5.01156794,54.54428 L5.01156794,51.31868 L32.1809059,51.31868 L41.4655251,40.93268 L41.4655251,5.18588 L44.7232653,5.18588 C46.6382479,5.18588 48.1960378,6.75188 48.1960378,8.67668 L48.1960378,54.54428 C48.1960378,56.46668 46.6382479,58.03268 44.7232653,58.03268 Z M6.15840717,52.46948 L6.15840717,54.54428 C6.15840717,55.83308 7.20011946,56.88068 8.48195122,56.88068 L44.7232653,56.88068 C46.0062917,56.88068 47.0503932,55.83308 47.0503932,54.54428 L47.0503932,8.67668 C47.0503932,7.38788 46.0062917,6.33788 44.7232653,6.33788 L42.6111697,6.33788 L42.6111697,41.37428 L32.6910105,52.46948 L6.15840717,52.46948 Z"  class="icon"></path>
            <path d="M39.1405475,0.2 L2.89923345,0.2 C1.29843703,0.2 -0.000119462419,1.502 -0.000119462419,3.1124 L-0.000119462419,48.9836 C-0.000119462419,50.5892 1.29843703,51.8936 2.89923345,51.8936 L32.4363166,51.8936 L42.0387058,41.1536 L42.0387058,3.1124 C42.0387058,1.502 40.741344,0.2 39.1405475,0.2 Z M7.73387755,11.1368 L18.7853459,11.1368 L18.7853459,8.1896 L7.73387755,8.1896 L7.73387755,11.1368 Z M7.73387755,31.376 L34.3596615,31.376 L34.3596615,20.1692 L7.73387755,20.1692 L7.73387755,31.376 Z M7.73507218,43.472 L28.871558,43.472 L28.871558,41.96 L7.73507218,41.96 L7.73507218,43.472 Z M7.73387755,37.6652 L34.4492583,37.6652 L34.4492583,36.1556 L7.73387755,36.1556 L7.73387755,37.6652 Z M32.9488104,51.0488 L32.9488104,44.1392 C32.9488104,42.9296 33.9284022,41.9468 35.1313888,41.9468 L41.0507516,41.9468 L32.9488104,51.0488 Z" class="icon"></path>
    </g>
</svg>
