<svg viewBox="0 0 50 39" version="1.1" xmlns="http://www.w3.org/2000/svg" xmlns:xlink="http://www.w3.org/1999/xlink">

    <g id="Page-1" stroke="none" stroke-width="1" fill="none" fill-rule="evenodd">
        <path d="M32.0269063,0 L20.9086246,8.84901503 L12.4288456,8.84901503 L0,23.9806485 L1.92116759,23.9806485 L1.92116759,38.1355932 L12.8317779,38.1355932 L12.8317779,35.6056464 L13.4167329,35.6056464 L13.4167329,23.9806485 L11.9241461,23.9806485 L17.4808049,20.9586295 L20.3087768,19.4219395 L23.5429905,21.2427722 L23.5578832,21.2427722 L28.4344387,23.9806485 L28.3938973,23.9806485 L26.801198,23.9806485 L26.801198,35.6056464 L27.3547127,35.6056464 L27.3547127,38.1355932 L46.0600344,38.1355932 L46.0600344,23.9806485 L50,23.9806485 L46.0600344,19.4675017 L46.0600344,11.9944663 L46.059207,11.9944663 L46.059207,2.45787564 L34.8424676,2.45787564 L32.0269063,0 Z M12.7358022,9.50179764 L20.9086246,9.50179764 L21.136153,9.50179764 L21.3140389,9.3601405 L32.0078766,0.847457627 L34.4147141,2.94911941 L34.599219,3.11065825 L34.8424676,3.11065825 L45.4088893,3.11065825 L45.4088893,10.5911493 L37.1988351,3.64829266 L36.7884564,3.30036284 L36.3706315,3.63835181 L25.6362523,12.2968338 L17.4808049,12.2968338 L16.8304872,12.2968338 L16.8304872,12.948788 L16.8304872,20.5701079 L11.7586709,23.3286943 L1.37840879,23.3286943 L12.7358022,9.50179764 Z M32.8054673,17.5224083 L40.6878806,17.5224083 L40.6878806,12.2612125 L32.8054673,12.2612125 L32.8054673,17.5224083 Z M20.678614,17.5224083 L25.2060167,17.5224083 L25.2060167,15.1274914 L20.678614,15.1274914 L20.678614,17.5224083 Z M22.7884234,20.0631244 L45.7158459,20.0631244 L48.5669844,23.3286943 L28.6040508,23.3286943 L22.7884234,20.0631244 Z M32.8054673,35.6056464 L40.6878806,35.6056464 L40.6878806,26.5014828 L32.8054673,26.5014828 L32.8054673,35.6056464 Z M6.14244109,34.6629223 L6.14244109,27.8865749 L10.6235107,27.8865749 L10.6235107,34.6629223 L6.14244109,34.6629223 Z M15.2542373,35.751912 L15.2542373,24.1525424 L25,24.1525424 L25,35.751912 L24.4465065,35.751912 L24.4465065,36.8644068 L22.5294286,36.8644068 L22.5294286,27.1759494 L17.6787528,27.1759494 L17.6787528,36.8644068 L15.9302725,36.8644068 L15.9302725,35.751912 L15.2542373,35.751912 Z" class="icon"></path>
    </g>
</svg>
