<svg viewBox="0 0 44 60" version="1.1" xmlns="http://www.w3.org/2000/svg" xmlns:xlink="http://www.w3.org/1999/xlink">

        <path d="M3.82978723,23.4744383 L3.82978723,17.0375319 C3.82978723,7.64395253 11.5617498,0 21.0638298,0 C30.5671555,0 38.2978723,7.54008776 38.2978723,16.8050726 L38.2978723,23.4744383 L41.789121,23.4744383 C42.554276,23.4744383 43.1730967,24.0926936 43.1730967,24.8540979 L43.1730967,58.6199702 C43.1730967,59.3838426 42.554276,59.9996298 41.789121,59.9996298 L1.38595988,59.9996298 C0.619564742,59.9996298 -0.000496048632,59.3838426 -0.000496048632,58.6199702 L-0.000496048632,24.8540979 C-0.000496048632,24.0926936 0.619564742,23.4744383 1.38595988,23.4744383 L3.82978723,23.4744383 Z M7.77113242,23.4744383 L34.3590185,23.4744383 L34.3590185,16.8050726 C34.3590185,9.67178853 28.3934363,3.86772622 21.0638298,3.86772622 C13.7342233,3.86772622 7.77113242,9.77812627 7.77113242,17.0375319 L7.77113242,23.4744383 Z M35.2325982,54.6722681 L35.2325982,50.6591617 C35.2325982,50.1778851 34.9932547,49.5226085 33.7890967,49.1018 C32.5861787,48.6809915 26.7476863,45.8649064 25.1218869,44.2470766 L25.1218869,44.2038851 L25.1218869,43.1426085 C25.8126347,42.4503106 26.9262638,40.9213319 27.1705678,39.4849064 C27.8290723,38.7926085 28.580586,37.4252894 27.5562456,36.370183 C27.5562456,34.6906511 28.3697653,28.0724809 21.869048,28.0724809 C15.3683307,28.0724809 16.17689,34.6906511 16.17689,36.370183 C15.1562699,37.4252894 15.9090237,38.7926085 16.5712486,39.4849064 C16.8118322,40.9213319 17.9254614,42.4503106 18.6162091,43.1426085 L18.6162091,44.2038851 L18.6162091,44.2470766 C16.9904097,45.8649064 11.1519173,48.6809915 9.94899939,49.1018 C8.74484134,49.5226085 8.50053739,50.1778851 8.50053739,50.6591617 L8.50053739,54.6722681 L21.6297046,54.6722681 L22.1083915,54.6722681 L35.2325982,54.6722681 Z" class="icon"></path>
</svg>
