<?xml version="1.0" encoding="UTF-8"?>
<svg width="606px" height="180px" viewBox="0 0 606 180" version="1.1" xmlns="http://www.w3.org/2000/svg" xmlns:xlink="http://www.w3.org/1999/xlink">
    <!-- Generator: Sketch 50.2 (55047) - http://www.bohemiancoding.com/sketch -->
    <title>Group</title>
    <desc>Created with Sketch.</desc>
    <defs></defs>
    <g id="Page-1" stroke="none" stroke-width="1" fill="none" fill-rule="evenodd">
        <g id="Group">
            <rect id="Rectangle" fill="#D8D8D8" x="0" y="0" width="606" height="180"></rect>
            <path d="M92,140.528 L92,39.728 L109.712,39.728 L109.712,124.4 L162.704,124.4 L162.704,140.528 L92,140.528 Z M224.032,142.256 C193.072,142.256 171.472,118.784 171.472,90.416 L171.472,90.128 C171.472,61.76 193.36,38 224.32,38 C255.28,38 276.88,61.472 276.88,89.84 L276.88,90.128 C276.88,118.496 254.992,142.256 224.032,142.256 Z M224.32,125.984 C244.336,125.984 258.304,110 258.304,90.416 L258.304,90.128 C258.304,70.544 244.048,54.272 224.032,54.272 C204.016,54.272 190.048,70.256 190.048,89.84 L190.048,90.128 C190.048,109.712 204.304,125.984 224.32,125.984 Z M346.704,142.256 C315.168,142.256 294.432,119.792 294.432,90.416 L294.432,90.128 C294.432,61.904 316.032,38 346.416,38 C363.984,38 374.784,42.896 385.152,51.68 L373.92,65.072 C366.144,58.448 358.512,54.272 345.696,54.272 C327.12,54.272 313.008,70.544 313.008,89.84 L313.008,90.128 C313.008,110.864 326.688,126.128 347.28,126.128 C356.784,126.128 365.424,123.104 371.616,118.496 L371.616,99.632 L345.84,99.632 L345.84,84.224 L388.752,84.224 L388.752,126.56 C378.816,135.056 364.56,142.256 346.704,142.256 Z M460.448,142.256 C429.488,142.256 407.888,118.784 407.888,90.416 L407.888,90.128 C407.888,61.76 429.776,38 460.736,38 C491.696,38 513.296,61.472 513.296,89.84 L513.296,90.128 C513.296,118.496 491.408,142.256 460.448,142.256 Z M460.736,125.984 C480.752,125.984 494.72,110 494.72,90.416 L494.72,90.128 C494.72,70.544 480.464,54.272 460.448,54.272 C440.432,54.272 426.464,70.256 426.464,89.84 L426.464,90.128 C426.464,109.712 440.72,125.984 460.736,125.984 Z" id="LOGO" fill="#000000"></path>
        </g>
    </g>
</svg>