<svg viewBox="0 0 50 49" version="1.1" xmlns="http://www.w3.org/2000/svg" xmlns:xlink="http://www.w3.org/1999/xlink">
        <path d="M45.471413,16.0037419 C49.2890783,16.0037419 49.8092229,20.5938393 49.8092229,23.1664042 C49.8092229,25.7421347 48.6522555,30.2741964 45.296941,30.2741964 C41.9448978,30.2741964 39.1675218,25.2377516 39.1675218,21.7112906 C39.1675218,18.1858847 43.7365071,16.0037419 45.471413,16.0037419 Z M25.8850534,16.4772727 C35.4463899,16.4772727 42.6136364,33.5510695 42.6136364,39.9606952 C42.6136364,46.3713904 38.8599265,48.2954545 34.2520277,48.2954545 C29.6419826,48.2954545 26.281028,45.5745989 23.834356,45.5745989 C21.3876841,45.5745989 17.1188854,47.6740642 13.1934792,47.6740642 C9.26485377,47.6740642 6.81818182,44.9532086 6.81818182,40.4152406 C6.81818182,28.3318182 18.9420852,16.4772727 25.8850534,16.4772727 Z M32.0796853,0.197979493 C37.6989161,0.197979493 40.0894755,9.24742922 40.0894755,11.182228 C40.0894755,13.1170267 39.2576573,17.328943 35.3031119,17.328943 C31.3527622,17.328943 27.0153497,12.8884565 27.0153497,8.73556066 C27.0153497,4.57944555 29.7426224,0.197979493 32.0796853,0.197979493 Z M4.40183663,15.9090909 C6.16234998,15.9090909 10.7954545,18.0811554 10.7954545,21.5902789 C10.7954545,25.1004527 7.98040367,30.1136364 4.57556422,30.1136364 C1.17072478,30.1136364 0,25.6025063 0,23.038672 C0,20.4779886 0.52782204,15.9090909 4.40183663,15.9090909 Z M17.0422028,0.197979493 C19.3792657,0.197979493 22.1065385,4.57944555 22.1065385,8.73556066 C22.1065385,12.8884565 17.7649301,17.328943 13.8187762,17.328943 C9.86423077,17.328943 9.03241259,13.1170267 9.03241259,11.182228 C9.03241259,9.24742922 11.422972,0.197979493 17.0422028,0.197979493 Z"  class="icon"></path>
</svg>
