<svg xmlns="http://www.w3.org/2000/svg" viewBox="0 0 50 47">
        <path d="M10.2409639,13.1313253 L6.20877778,13.1313253 L6.20877778,45.1807229 L10.2409639,45.1807229 L10.2409639,13.1313253 Z M39.1566265,45.1807229 L43.4628889,45.1807229 L43.4628889,13.1313253 L39.1566265,13.1313253 L39.1566265,45.1807229 Z M20.7835098,12.0481928 L29.2164902,12.0481928 L29.2164902,10.9241485 C29.2164902,9.32649944 27.8581578,8.03119878 26.1783534,8.03119878 L23.8182508,8.03119878 C22.1418422,8.03119878 20.7835098,9.32649944 20.7835098,10.9241485 L20.7835098,12.0481928 Z M18.6746988,12.0481928 L18.6746988,10.8438198 C18.6746988,8.18069946 20.9397181,6.02409639 23.7356189,6.02409639 L26.2643811,6.02409639 C27.6656047,6.02409639 28.9334858,6.56577491 29.8497307,7.44141898 C31.4917388,6.26098017 33.5175601,5.69877303 35.8013037,5.7960234 L35.6854444,5.51451807 L36.7765556,3.09584337 L44.2143333,0.265220884 L46.6565556,6.18821285 L39.2187778,9.01662651 L36.6954444,7.96853414 L36.2048891,6.77662265 C33.9954266,6.59586635 32.0418602,7.0769234 30.4827278,8.17912201 C31.0151543,8.94225876 31.3253012,9.85836081 31.3253012,10.8438198 L31.3253012,12.0481928 L43.4628889,12.0481928 L43.4628889,11.990492 L44.5417778,11.990492 C47.2862222,11.990492 49.6717778,14.1915964 49.6717778,16.8278414 L49.6717778,41.6385843 C49.6717778,44.2631241 47.3073594,45.7700446 44.5783133,45.7833747 L44.5783133,46.2650602 L5.42168675,46.2650602 L5.42168675,45.7834639 L4.80211111,45.7834639 C2.05766667,45.7834639 -0.000111111111,44.2748293 -0.000111111111,41.6385843 L-0.000111111111,16.8278414 C-0.000111111111,14.1915964 2.05766667,11.990492 4.80211111,11.990492 L6.20877778,11.990492 L6.20877778,12.0481928 L18.6746988,12.0481928 Z M38.4665556,6.77024096 C38.9721111,6.57807229 39.2143333,6.03138554 39.0154444,5.54985944 C38.8176667,5.06502008 38.2476667,4.82757028 37.7465556,5.01973896 C37.241,5.21190763 36.9954444,5.7596988 37.1932222,6.2412249 C37.3954444,6.72606426 37.961,6.96240964 38.4665556,6.77024096 Z" class="icon"></path>
</svg>
