<svg viewBox="0 0 50 55" version="1.1" xmlns="http://www.w3.org/2000/svg" xmlns:xlink="http://www.w3.org/1999/xlink">

        <path d="M30.9537737,14.5167232 L31.1278063,14.2857143 C31.1278063,14.2857143 31.069706,18.4807528 33.026199,20.9300422 L42.0105013,11.9981265 C41.9822078,11.6951543 42.0846544,11.3823577 42.3178409,11.1505309 L46.8371591,6.65756438 C47.8519318,5.6487087 47.8530682,4.00607021 46.8371591,2.99721453 C45.8223864,1.98722911 44.1701136,1.98722911 43.1553409,2.99721453 C42.7382955,3.41069849 42.0644318,3.41069849 41.6485227,2.99721453 C41.2326136,2.58373056 41.2326136,1.91266642 41.6485227,1.49918246 C43.4939773,-0.335511419 46.4973864,-0.335511419 48.3439773,1.49918246 C50.1894318,3.33387634 50.1894318,6.31977284 48.3439773,8.15559645 L43.8246591,12.6485629 C43.6116803,12.8597229 43.3317235,12.9630467 43.0533494,12.9585343 L34.0526103,21.9058779 C36.5214639,23.6961614 40.4761905,23.6403572 40.4761905,23.6403572 L39.4629317,24.4047619 C39.2654703,24.4013746 35.0454393,24.3076588 32.7537594,22.0144446 C30.6627889,19.9220742 30.3943201,16.214183 30.361228,15.4309353 L2.2715843,52.5000308 L2.27125,52.5008479 L12.9203139,44.5213305 L2.38095238,52.3809524 L28.2158199,18.452381 L3.5521941,51.222134 L30.4894114,31.356519 L40.4701136,23.8778158 C40.4701136,23.8778158 40.4030682,28.604638 42.7655682,30.9533625 C45.1292045,33.302087 49.89625,33.2489893 49.89625,33.2489893 L3.12344048,52.1563597 L0.606477273,54.6586467 C0.467840909,54.7964747 0.241704545,54.7964747 0.104204545,54.6586467 C-0.0344318182,54.5219485 -0.0344318182,54.2971307 0.104204545,54.1593027 L2.61288198,51.6652531 L21.6393182,5.15670797 C21.6393182,5.15670797 21.5859091,9.89595724 23.9484091,12.2458115 C26.1081403,14.3929495 30.2574321,14.512089 30.9537737,14.5167232 Z"  class="icon"></path>
</svg>
